<?xml version="1.0" encoding="UTF-8" standalone="no"?>
<svg
   xmlns:dc="http://purl.org/dc/elements/1.1/"
   xmlns:cc="http://creativecommons.org/ns#"
   xmlns:rdf="http://www.w3.org/1999/02/22-rdf-syntax-ns#"
   xmlns:svg="http://www.w3.org/2000/svg"
   xmlns="http://www.w3.org/2000/svg"
   viewBox="0 0 150 31"
   height="31"
   width="150"
   id="svg3767"
   version="1.1">
  <metadata
     id="metadata3773">
    <rdf:RDF>
      <cc:Work
         rdf:about="">
        <dc:format>image/svg+xml</dc:format>
        <dc:type
           rdf:resource="http://purl.org/dc/dcmitype/StillImage" />
        <dc:title></dc:title>
      </cc:Work>
    </rdf:RDF>
  </metadata>
  <defs
     id="defs3771" />
  <path
     id="path3777"
     d="M 5.6222301,25.500358 C -3.0134341,20.806964 1.5651954,6.4355352 12.34014,4.4141432 c 1.982354,-0.371892 4.610935,-0.180717 5.958714,0.433372 1.326393,0.604345 3.164289,0.809985 4.084213,0.456977 1.369328,-0.52546 1.555265,-0.203297 1.025504,1.776837 C 23.052675,8.4115982 22.755342,10.2875 22.747832,11.25 22.726572,13.974235 21.290511,13.312242 20.041139,10.002278 17.104573,2.2224282 9.1143572,6.1169172 7.2138069,16.254413 c -1.4396635,7.679135 4.8520661,11.5048 10.1718851,6.184981 2.743588,-2.743588 3.792847,-2.760957 2.750842,-0.04554 -1.55329,4.047811 -9.609669,5.77212 -14.5143039,3.106501 z m 24.1316549,0.215193 c -7.553019,-3.821639 -5.53725,-15.8694228 3.361727,-20.0922638 4.951283,-2.349538 8.969692,-2.040157 12.54184,0.965606 9.665098,8.1326448 -4.34085,24.9771028 -15.903567,19.1266578 z m 9.852669,-3.536321 c 2.941251,-4.130607 4.594732,-11.437911 3.184428,-14.0730898 -1.385947,-2.589665 -5.160995,-2.753481 -7.363679,-0.319542 -2.297646,2.5388708 -4.693126,8.6543938 -4.693126,11.9812828 0,5.701598 5.470778,7.188454 8.872377,2.411349 z M 51.427284,23.25 c 0.779534,-5.152317 1.860101,-5.970425 3.118371,-2.36095 1.164065,3.33924 4.487583,4.754674 8.688522,3.700306 4.4838,-1.125362 3.181627,-4.313128 -2.851844,-6.981415 -5.796786,-2.563614 -7.299701,-5.083849 -5.451138,-9.1410038 1.354439,-2.972669 5.971219,-4.909716 9.545147,-4.004824 1.516809,0.384045 3.770335,0.709783 5.007835,0.723862 2.383057,0.02711 2.668121,1.329147 1.272908,5.8140248 l -0.777731,2.5 -1.222515,-3.256028 C 66.912654,5.3321982 59.563834,4.2112662 58.916874,8.7430612 c -0.263321,1.8444998 0.629847,2.6415038 5.25,4.6847548 5.219281,2.308214 5.567303,2.67982 5.567303,5.944575 0,6.036691 -6.521389,9.280872 -13.399499,6.66582 -1.619464,-0.61572 -2.743581,-0.61572 -3.124116,0 -1.359034,2.198962 -2.312318,0.708472 -1.783278,-2.788211 z m 22.038536,1.364032 c 2.624257,-3.336202 6.179066,-17.8104618 4.510742,-18.3665698 -2.790088,-0.93003 -0.96177,-2.247462 3.119003,-2.247462 h 4.361389 l 0.888611,7.2476648 0.888612,7.247665 4.294658,-7.247665 c 4.178387,-7.0514468 4.401742,-7.2476648 8.25,-7.2476648 3.841565,0 5.303765,1.268584 2.640275,2.29066 -0.72328,0.277551 -2.29828,4.0923278 -3.500003,8.4772818 C 96.327582,24.224215 96.275651,25 98.234177,25 c 0.825,0 1.5,0.45 1.5,1 0,0.555556 -2.666667,1 -6,1 -3.333333,0 -6,-0.444444 -6,-1 0,-0.55 0.657655,-1 1.461456,-1 0.882114,0 1.892532,-1.684759 2.548895,-4.25 0.598092,-2.3375 1.517466,-5.560471 2.043053,-7.162158 0.525588,-1.601686 0.816983,-3.050789 0.647544,-3.220227 -0.169438,-0.169438 -2.533967,3.495338 -5.254508,8.143947 -2.720542,4.648609 -5.50894,8.460211 -6.19644,8.470227 C 82.122933,26.994339 81.712318,25.05622 81.663892,20.75 81.553446,10.928754 80.39233,9.5749052 78.543223,17.111332 77.214532,22.52669 77.185849,23.669145 78.354951,24.610243 80.610954,26.426268 79.964335,27 75.661597,27 h -4.07258 z m 35.28807,1.101519 c -7.55302,-3.821639 -5.53725,-15.8694228 3.36173,-20.0922638 4.95128,-2.349538 8.96969,-2.040157 12.54183,0.965606 9.6651,8.1326448 -4.34085,24.9771028 -15.90356,19.1266578 z m 9.85267,-3.536321 c 2.94125,-4.130607 4.59473,-11.437911 3.18442,-14.0730898 -1.38594,-2.589665 -5.16099,-2.753481 -7.36367,-0.319542 -2.29765,2.5388708 -4.69313,8.6543938 -4.69313,11.9812828 0,5.701598 5.47078,7.188454 8.87238,2.411349 z M 130.42729,23.25 c 0.77953,-5.152317 1.8601,-5.970425 3.11837,-2.36095 1.16406,3.33924 4.48758,4.754674 8.68852,3.700306 4.4838,-1.125362 3.18163,-4.313128 -2.85184,-6.981415 -5.77939,-2.55592 -7.29956,-5.084165 -5.47059,-9.0983208 1.84233,-4.043467 7.41469,-5.563782 12.27538,-3.349105 1.96308,0.894441 2.52895,1.868849 2.4681,4.25 L 148.57633,12.5 147.57126,9.7479662 c -1.62958,-4.46207 -9.05052,-5.234504 -9.65434,-1.004905 -0.26332,1.8444998 0.62984,2.6415038 5.25,4.6847548 5.21928,2.308214 5.5673,2.67982 5.5673,5.944575 0,6.036691 -6.52139,9.280872 -13.3995,6.66582 -1.61946,-0.61572 -2.74358,-0.61572 -3.12412,0 -1.35903,2.198962 -2.31231,0.708472 -1.78327,-2.788211 z"
     style="fill:#800080" />
</svg>
